# xmcd CD database file
#
# Track frame offsets:
#	150
#	12029
#	37747
#	78032
#	89513
#	102148
#	113693
#	125910
#	137646
#	150152
#	163681
#	177548
#	209201
#	223621
#	240757
#	254044
#
# Disc length: 3581 seconds
#
# Revision: 0
# Processed by: cddbd v1.5.2PL0 Copyright (c) Steve Scherf et al.
# Submitted via: CDex 1.51
#
DISCID=ce0dfb10
DTITLE=Erroll Garner - 1945-1956
DYEAR=2011
DGENRE=Jazz
TTITLE0=I Had To Be You
TTITLE1=Lover
TTITLE2=Blue Lou
TTITLE3=Bird's Nest
TTITLE4=All Of Me
TTITLE5=I Can't Believe
TTITLE6=Undecided
TTITLE7=Moonglow
TTITLE8=What Is THis Thing Called Love?
TTITLE9=Poor Butterfly
TTITLE10=The Petite Waltz Bounce
TTITLE11=Caravan
TTITLE12=Where Dr When
TTITLE13=Mambo Carmel
TTITLE14=Misty
TTITLE15=Misty
EXTD=YEAR: 2011
EXTT0=
EXTT1=
EXTT2=
EXTT3=
EXTT4=
EXTT5=
EXTT6=
EXTT7=
EXTT8=
EXTT9=
EXTT10=
EXTT11=
EXTT12=
EXTT13=
EXTT14=
EXTT15=
PLAYORDER=
